HIERARCHY
ROOT Hips
{
	OFFSET 0.00000 0.00000 0.00000
	CHANNELS 6 Xposition Yposition Zposition Yrotation Zrotation Xrotation 
	JOINT Lumbar
	{
		OFFSET 0 0 0
		CHANNELS 3 Zrotation Xrotation Yrotation
		JOINT Neck
		{
			OFFSET 0.00 0.2701 0.00
			CHANNELS 3 Zrotation Xrotation Yrotation
			End Site
			{
				OFFSET 0.00 0.1379 0.00
			}
		}
		JOINT RightShoulder
		{
			OFFSET 0.0119 0.2289 0.1181
			CHANNELS 3 Zrotation Xrotation Yrotation
			JOINT RightElbow
			{
				OFFSET 0.00 -0.1475 0.00
				CHANNELS 2 Zrotation Yrotation
				JOINT RightWrist
				{
					OFFSET 0.00 -0.1605 0.00
					CHANNELS 2 Zrotation Xrotation
					End Site
					{
						OFFSET 0.0040 -0.1068 0.0006
					}
				}
			}
		}
		JOINT LeftShoulder
		{
			OFFSET 0.0119 0.2289 -0.1181
			CHANNELS 3 Zrotation Xrotation Yrotation
			JOINT LeftElbow
			{
				OFFSET 0.00 -0.1475 0.00
				CHANNELS 2 Zrotation Yrotation
				JOINT LeftWrist
				{
					OFFSET 0.00 -0.1605 0.00
					CHANNELS 2 Zrotation Xrotation
					End Site
					{
						OFFSET 0.0040 -0.1068 -0.0006
					}
				}
			}
		}
	}
	JOINT RightHip
	{
		OFFSET 0.0316 -0.0424 0.0458
		CHANNELS 3 Zrotation Xrotation Yrotation
		JOINT RightKnee
		{
			OFFSET 0.00 -0.2438 0.00
			CHANNELS 1 Zrotation
			JOINT RightAnkle
			{
				OFFSET 0.00 -0.2449 0.00
				CHANNELS 3 Zrotation Xrotation Yrotation
				End Site
				{
					OFFSET 0.1237 -0.0542 0.0051
				}
			}
		}
	}
	JOINT LeftHip
	{
		OFFSET 0.0316 -0.0424 -0.0458
		CHANNELS 3 Zrotation Xrotation Yrotation
		JOINT LeftKnee
		{
			OFFSET 0.00 -0.2438 0.00
			CHANNELS 1 Zrotation
			JOINT LeftAnkle
			{
				OFFSET 0.00 -0.2449 0.00
				CHANNELS 3 Zrotation Xrotation Yrotation
				End Site
				{
					OFFSET 0.1237 -0.0542 -0.0051
				}
			}
		}
	}
}
MOTION
Frames: 21
Frame Time: 0.02
-0.61931 -0.61745 0.02349 110.30265 23.43629 -38.17137 16.84339 4.86231 6.56792 -61.35215 34.56863 -0.83079 18.49215 -59.89953 -2.74662 31.71666 114.25843 -44.23026 -7.1348 -64.40043 -11.40179 90.01161 44.6202 -77.93091 -79.69824 22.97323 121.79881 -7.46446 36.11093 -138.36361 -15.10122 1.72772 0.18222 115.44962 9.84614 3.42462 -74.78191 -14.2672 5.98448 4.33141
-0.61948 -0.61747 0.02298 112.55265 24.41546 -39.46802 14.96816 4.98242 5.4075 -61.82134 34.37552 -0.83079 8.57128 -60.4336 -10.51178 28.35412 113.14788 -43.13838 -7.02464 -64.40043 -11.40179 90.01161 43.99114 -77.92516 -79.69824 22.97322 119.53536 -9.42688 36.15875 -138.50114 -15.09434 1.72562 0.18172 113.48256 8.85351 3.21617 -75.27629 -14.28951 5.98389 4.33189
-0.61946 -0.61755 0.02251 115.37111 25.70144 -41.05766 12.54462 5.02311 4.008 -62.26144 34.36105 -0.83079 -2.87511 -59.55183 -18.34845 25.2936 111.48746 -41.61196 -6.90678 -64.40043 -11.40179 90.01161 43.21094 -77.88542 -79.69825 22.97323 116.70912 -11.84807 36.15283 -138.64896 -15.09914 1.72319 0.18096 110.92755 7.62926 2.92231 -75.81281 -14.32989 5.9824 4.33273
-0.61952 -0.61762 0.02203 117.84662 26.8134 -42.45839 10.44256 5.10414 2.73802 -62.69946 34.2239 -0.83079 -13.4628 -59.23387 -25.8608 22.16582 110.02723 -40.27969 -6.79308 -64.40043 -11.40179 90.01161 42.49047 -77.86384 -79.69824 22.97322 114.23537 -13.98388 36.17714 -138.79225 -15.10019 1.72096 0.18029 108.71196 6.56038 2.69113 -76.31129 -14.36022 5.98133 4.33334
-0.61962 -0.61764 0.02151 120.67874 28.06937 -44.093 8.03478 5.17018 1.38256 -63.20204 34.25191 -0.83079 -24.80988 -59.23333 -34.56981 18.71694 108.55778 -38.8324 -6.68456 -64.40043 -11.40178 90.01161 41.81153 -77.83308 -79.69824 22.97319 111.35526 -16.44081 36.18187 -138.93528 -15.0945 1.7185 0.17978 106.1944 5.28175 2.36238 -76.89089 -14.39836 5.98016 4.33421
-0.61957 -0.61776 0.0211 122.90458 29.10214 -45.31145 6.13148 5.24931 0.14688 -63.56342 33.97837 -0.83079 -34.9009 -58.24403 -40.85848 16.01371 107.10027 -37.57597 -6.56999 -64.40043 -11.40178 90.01161 41.01006 -77.81254 -79.69824 22.97324 109.18481 -18.34022 36.21044 -139.08107 -15.10588 1.71643 0.17886 104.16233 4.38184 2.21011 -77.31181 -14.42515 5.97899 4.33465
-0.61919 -0.61813 0.02099 123.30108 29.40374 -45.29739 5.78485 5.35965 -0.69449 -63.53988 32.87594 -0.83079 -41.31181 -54.84776 -39.91971 15.36703 105.31055 -36.88802 -6.31841 -64.40044 -11.40179 90.01161 39.89134 -77.82786 -79.69827 22.97354 109.14164 -18.57416 36.34766 -139.23341 -15.15902 1.71568 0.17705 103.64957 4.61531 2.63352 -77.27426 -14.40771 5.97841 4.33354
-0.61865 -0.6186 0.021 123.07066 29.47642 -44.85579 5.96058 5.48864 -1.40894 -63.37561 31.4576 -0.83079 -46.3693 -50.50917 -36.63152 15.45994 103.65819 -36.43351 -6.07873 -64.40044 -11.40181 90.01162 38.65698 -77.85434 -79.6983 22.97393 109.82721 -18.23374 36.50598 -139.388 -15.22933 1.71532 0.1748 103.63992 5.23237 3.22715 -77.07725 -14.37931 5.97782 4.33203
-0.61818 -0.61903 0.02096 123.13772 29.6809 -44.61874 5.87727 5.62576 -2.18432 -63.27719 30.15412 -0.83079 -51.93388 -46.62319 -34.77227 15.16102 102.31044 -35.93655 -5.91398 -64.40044 -11.40182 90.01163 37.48494 -77.87597 -79.69832 22.97426 110.15877 -18.166 36.63341 -139.54043 -15.29354 1.71465 0.17261 103.37619 5.65355 3.69667 -76.95926 -14.36181 5.97695 4.33091
-0.61773 -0.61943 0.02091 123.17168 29.78259 -44.35216 5.86294 5.6946 -2.95168 -63.16988 28.97558 -0.83079 -58.0083 -42.59629 -31.42231 15.07233 99.43897 -35.1672 -5.41982 -64.40045 -11.40183 90.01164 36.26554 -77.89594 -79.69836 22.97469 110.56447 -18.06633 36.84428 -139.69751 -15.35127 1.71448 0.17097 103.1964 6.15726 4.35294 -76.81449 -14.32146 5.97713 4.32899
-0.61718 -0.61991 0.02091 123.11815 30.03539 -44.03732 5.84022 5.90544 -3.70576 -63.04792 27.46231 -0.83079 -62.6795 -38.643 -30.5787 14.76143 99.72113 -35.00958 -5.6025 -64.40045 -11.40184 90.01165 35.12046 -77.92191 -79.69838 22.97494 110.99937 -17.88913 36.89289 -139.84597 -15.42603 1.7134 0.16813 102.97262 6.58367 4.67132 -76.68786 -14.32398 5.97528 4.32857
-0.61642 -0.62061 0.02105 122.97395 30.80048 -43.73091 5.63303 6.55366 -4.42373 -62.92064 25.07883 -0.83079 -63.79376 -35.26398 -37.56673 13.27014 109.21204 -36.6484 -7.75541 -64.40045 -11.40182 90.01164 34.1996 -77.96649 -79.69836 22.97468 111.31154 -17.65037 36.43595 -139.9642 -15.54728 1.70964 0.16182 102.4773 6.70023 3.93103 -76.64605 -14.46377 5.9666 4.33275
-0.61553 -0.62138 0.02124 122.76053 31.71748 -43.38284 5.40741 7.33584 -5.13606 -62.78325 22.3739 -0.83079 -63.53669 -31.97818 -47.09197 11.59302 121.77784 -38.87336 -10.56989 -64.40044 -11.40181 90.01163 33.3603 -78.01598 -79.69832 22.97425 111.63508 -17.34883 35.82324 -140.07474 -15.6845 1.70517 0.1545 101.92955 6.72764 2.85916 -76.63054 -14.64411 5.95605 4.33837
-0.61467 -0.62209 0.02141 122.57807 32.53677 -43.02734 5.21625 8.02366 -5.87119 -62.65049 19.82917 -0.83079 -63.90896 -28.55757 -55.23885 10.26178 132.58605 -40.71632 -13.0128 -64.40044 -11.4018 90.01162 32.49017 -78.06026 -79.6983 22.97391 111.97317 -17.06595 35.31872 -140.19254 -15.81174 1.70077 0.14764 101.42499 6.79844 1.99684 -76.60306 -14.79491 5.94728 4.34314
-0.61396 -0.6229 0.02158 122.37785 33.46606 -42.76616 4.93692 8.85098 -6.52127 -62.51366 17.20965 -0.83079 -64.2112 -25.47015 -64.26775 7.88268 144.90994 -43.0279 -15.75435 -64.40044 -11.40177 90.0116 31.5884 -78.11749 -79.69826 22.97352 112.2546 -16.80521 34.66435 -140.29443 -15.95039 1.69652 0.14021 100.85098 6.86941 0.89917 -76.56204 -14.99155 5.9349 4.34883
-0.61289 -0.62353 0.02176 122.20421 34.20933 -42.30698 4.82502 9.42241 -7.34294 -62.38347 14.67903 -0.83079 -64.34848 -21.75261 -72.07668 7.59487 154.81712 -44.53393 -18.03228 -64.40044 -11.40176 90.01159 30.77489 -78.14877 -79.69824 22.9732 112.64543 -16.49062 34.27563 -140.42776 -16.06968 1.69296 0.1344 100.40879 6.91505 0.20162 -76.56769 -15.10335 5.92922 4.3528
-0.61085 -0.62359 0.02198 122.14069 34.36674 -41.28742 5.22263 9.22668 -8.68927 -62.28579 12.42852 -0.83079 -64.39121 -16.02731 -76.04613 13.44503 157.19526 -43.37267 -18.85504 -64.40044 -11.40178 90.01159 30.17542 -78.10732 -79.69824 22.97314 113.3517 -16.05076 34.7387 -140.64863 -16.12854 1.68719 0.13094 100.29119 6.89897 0.76666 -76.61135 -14.96423 5.94537 4.35293
-0.60843 -0.62346 0.02221 122.10562 34.33886 -40.07578 5.77921 8.77324 -10.19915 -62.19382 10.2887 -0.83079 -64.31699 -9.715 -78.68599 21.34241 157.05269 -41.43181 -19.19048 -64.40044 -11.4017 90.01159 29.66567 -78.03951 -79.69824 22.97317 114.16282 -15.56302 35.46012 -140.9017 -16.17077 1.68684 0.13183 100.31614 6.85979 1.7298 -76.71878 -14.74016 5.96761 4.351
-0.60616 -0.62343 0.02243 122.04781 34.42053 -38.97089 6.23194 8.45674 -11.60326 -62.09205 8.12822 -0.83079 -64.28646 -3.8374 -81.8456 28.09132 158.13278 -40.04757 -19.7579 -64.40044 -11.40181 90.01159 29.12017 -77.98365 -79.69824 22.97316 114.90944 -15.09119 36.00976 -141.14067 -16.21886 1.6819 0.12944 100.30661 6.83982 2.46071 -76.85172 -14.55873 5.98539 4.3493
-0.60399 -0.62334 0.02266 122.02904 34.4024 -37.78552 6.81622 8.06395 -13.14281 -62.01954 5.82978 -0.83079 -64.24778 2.74532 -85.44103 35.75804 158.99938 -37.84405 -20.30518 -64.40044 -11.40177 90.01159 28.55093 -77.92815 -79.69823 22.97315 115.72072 -14.62997 36.78073 -141.37679 -16.26275 1.66995 0.1233 100.16441 6.78552 3.40035 -76.75071 -14.35944 6.01097 4.35091
-0.60153 -0.62332 0.02288 121.93615 34.54361 -36.71849 7.16638 7.76372 -14.43549 -61.8885 3.85094 -0.83079 -64.21557 8.00148 -87.79012 41.9978 159.6661 -37.13624 -20.76862 -64.40044 -11.40146 90.01159 28.05805 -77.86551 -79.69823 22.97314 116.43119 -14.15062 37.15756 -141.62704 -16.32617 1.69391 0.13755 100.33705 6.79167 3.99962 -77.15771 -14.17945 6.0209 4.34475
